<svg xmlns="http://www.w3.org/2000/svg" viewBox="0 0 280 80">
  <!-- Машинка -->
  <g transform="translate(0, 0) scale(0.8)">
    <!-- Кузов -->
    <path d="M20 55 Q20 48 30 48 L110 48 Q120 48 120 55 L120 68 Q120 72 116 72 L24 72 Q20 72 20 68 Z" fill="#F39C12"/>
    <!-- Крыша -->
    <path d="M38 48 L42 28 Q44 22 52 22 L88 22 Q96 22 98 28 L102 48" fill="#F39C12"/>
    <!-- Окна -->
    <path d="M46 46 L49 30 Q50 28 54 28 L66 28 Q68 28 68 30 L68 46 Z" fill="#2C3E50"/>
    <path d="M72 46 L72 30 Q72 28 74 28 L86 28 Q90 28 91 30 L94 46 Z" fill="#2C3E50"/>
    <!-- Бампер -->
    <rect x="18" y="68" width="104" height="4" rx="2" fill="#8B7355"/>
    <!-- Фары -->
    <circle cx="26" cy="58" r="5" fill="#ECF0F1"/>
    <circle cx="114" cy="58" r="5" fill="#ECF0F1"/>
    <!-- Левое колесо -->
    <circle cx="40" cy="76" r="12" fill="#2C3E50"/>
    <circle cx="40" cy="76" r="8" fill="#ECF0F1"/>
    <circle cx="40" cy="76" r="4" fill="#2C3E50"/>
    <!-- Правое колесо -->
    <circle cx="100" cy="76" r="12" fill="#2C3E50"/>
    <circle cx="100" cy="76" r="8" fill="#ECF0F1"/>
    <circle cx="100" cy="76" r="4" fill="#2C3E50"/>
  </g>
  <!-- Текст КИБИТКА -->
  <text x="115" y="58" font-family="Arial, sans-serif" font-size="28" font-weight="700" fill="#2C3E50" letter-spacing="4">КИБИТКА</text>
</svg>
